<svg xmlns="http://www.w3.org/2000/svg" viewBox="0 0 64 64" id="construction-tool"><path fill="#c6c1c1" d="M55.86 42.96a9.085 9.085 0 0 1 2.61 7.49c-.11.91-1.24 1.27-1.89.62l-4.47-4.47c-.83-.83-2.19-.84-3.04.01l-2.46 2.46c-.83.83-.84 2.2-.01 3.04l4.47 4.47c.65.65.29 1.8-.62 1.9-3.09.35-6.31-.87-8.39-3.67a9.122 9.122 0 0 1-1.6-7.05c.26-1.42-.14-2.89-1.16-3.91L20.16 24.71c-1.03-1.03-2.49-1.42-3.91-1.16-2.42.45-5-.09-7.05-1.6a9.16 9.16 0 0 1-3.67-8.39c.11-.91 1.25-1.28 1.9-.63l4.47 4.47c.84.84 2.21.83 3.05 0l2.46-2.46c.85-.85.84-2.2 0-3.05l-4.47-4.47c-.64-.64-.29-1.78.63-1.88 2.66-.31 5.44.56 7.48 2.6a9.08 9.08 0 0 1 2.52 8.09c-.26 1.44.13 2.91 1.16 3.94l19.12 19.12c1.03 1.03 2.5 1.42 3.93 1.16 2.84-.53 5.89.31 8.08 2.51z"></path><path fill="#e5e5e5" d="m42.87 41.34.38 1.35c.09.33-.21.63-.54.54l-1.35-.38a.453.453 0 0 1-.19-.11l-19.9-19.9a.453.453 0 0 1-.11-.19l-.38-1.35c-.09-.33.21-.63.54-.54l1.35.38c.07.02.14.06.19.11l19.9 19.9c.05.05.09.12.11.19z"></path><path fill="#506c72" d="M28.26 5.59c5.22-3.3 13.06-.3 19.32 5.98l5.9 5.9c.22.22.34.51.34.82v1.02c0 .64.52 1.16 1.15 1.16l2.6.02c.3 0 .58.12.79.33l1.02 1.02c.88.88.88 2.31 0 3.19l-5.41 5.41c-.88.88-2.31.88-3.19 0l-1.05-1.05c-.19-.19-.3-.44-.33-.7l-.21-2.47c-.05-.59-.54-1.05-1.13-1.07l-1.21-.03c-.3-.01-.58-.13-.79-.34l-7.22-7.22c-1.2-1.25-.78-3.03-.37-4.01.66-2.2-1.78-5.56-3.53-6.81-1.68-1.22-3.96-1.51-6.68-1.15z"></path><path fill="#fbd984" d="m6.23 59.19-1.7-1.7c-.76-.76-.76-2 0-2.76l35.75-35.75 4.47 4.47L8.99 59.19c-.76.77-2 .77-2.76 0z"></path><path fill="#687d87" d="m23.611 35.641 4.469 4.47-17.12 17.118-4.468-4.47z"></path></svg>